# Blender 4.2.2 LTS
# www.blender.org
mtllib props_emptycrate_A.mtl
o props_emptycrate_A
v -0.262500 0.000000 0.231925
v -0.262500 0.000000 -0.231925
v 0.262500 0.000000 0.231925
v 0.262500 0.000000 -0.231925
v -0.262500 0.028548 0.231925
v -0.262500 0.525000 0.231925
v -0.262500 0.028548 -0.231925
v -0.262500 0.525000 -0.231925
v 0.262500 0.028548 0.231925
v 0.262500 0.525000 0.231925
v 0.262500 0.028548 -0.231925
v 0.262500 0.525000 -0.231925
v -0.262500 -0.001013 0.262500
v -0.262500 0.525000 0.262500
v -0.262500 -0.001013 -0.262500
v -0.262500 0.525000 -0.262500
v 0.262500 -0.001013 0.262500
v 0.262500 0.525000 0.262500
v 0.262500 -0.001013 -0.262500
v 0.262500 0.525000 -0.262500
v -0.262500 0.030000 0.231925
v -0.262500 0.030000 -0.231925
v 0.262500 0.030000 0.231925
v 0.262500 0.030000 -0.231925
v -0.232500 0.028548 0.231925
v -0.232500 0.525000 0.231925
v -0.232500 0.028548 -0.231925
v -0.232500 0.525000 -0.231925
v 0.232500 0.028548 0.231925
v 0.232500 0.525000 0.231925
v 0.232500 0.028548 -0.231925
v 0.232500 0.525000 -0.231925
v -0.262500 -0.001013 0.232500
v -0.262500 0.525000 0.232500
v -0.262500 -0.001013 -0.232500
v -0.262500 0.525000 -0.232500
v 0.262500 -0.001013 0.232500
v 0.262500 0.525000 0.232500
v 0.262500 -0.001013 -0.232500
v 0.262500 0.525000 -0.232500
vn -0.0000 -1.0000 -0.0000
vn -1.0000 -0.0000 -0.0000
vn 1.0000 -0.0000 -0.0000
vn -0.0000 -0.0000 -1.0000
vn -0.0000 -0.0000 1.0000
vn -0.0000 1.0000 -0.0000
vt 0.745452 0.742675
vt 0.501756 0.742675
vt 0.501756 0.500077
vt 0.745452 0.500077
vt 0.745452 0.500077
vt 0.501821 0.500838
vt 0.744660 0.500838
vt 0.744660 0.740340
vt 0.501821 0.740340
vt 0.561293 0.506380
vt 0.561293 0.738357
vt 0.501335 0.738357
vt 0.501335 0.506380
vt 0.561293 0.738357
vt 0.500788 0.700311
vt 0.744648 0.700311
vt 0.744648 0.740735
vt 0.500788 0.740735
vt 0.744660 0.740761
vt 0.508124 0.740761
vt 0.508124 0.683204
vt 0.744660 0.683204
vt 0.744660 0.741308
vt 0.702055 0.741308
vt 0.702055 0.500838
s 0
usemtl Minipack_4
f 2/1/1 4/2/1 3/3/1 1/4/1
f 5/1/2 6/2/2 8/3/2 7/4/2
f 11/3/3 12/5/3 10/1/3 9/2/3
f 15/6/4 16/7/4 20/8/4 19/9/4
f 17/3/5 18/4/5 14/1/5 13/2/5
f 22/1/6 21/4/6 23/3/6 24/2/6
f 25/1/3 27/4/3 28/3/3 26/2/3
f 31/3/2 29/2/2 30/1/2 32/5/2
f 35/6/5 39/9/5 40/8/5 36/7/5
f 37/3/4 33/2/4 34/1/4 38/4/4
f 2/10/2 1/11/2 21/12/2 22/13/2
f 4/2/4 2/1/4 22/1/4 24/2/4
f 3/12/3 4/13/3 24/10/3 23/11/3
f 1/4/5 3/3/5 23/3/5 21/4/5
f 5/1/1 7/4/1 27/4/1 25/1/1
f 6/2/5 5/1/5 25/1/5 26/2/5
f 8/12/6 6/13/6 26/10/6 28/14/6
f 7/4/4 8/3/4 28/3/4 27/4/4
f 12/5/4 11/3/4 31/3/4 32/5/4
f 11/3/1 9/2/1 29/2/1 31/3/1
f 10/12/6 12/13/6 32/10/6 30/14/6
f 9/2/5 10/1/5 30/1/5 29/2/5
f 13/15/2 14/16/2 34/17/2 33/18/2
f 16/19/2 15/20/2 35/21/2 36/22/2
f 15/7/1 19/23/1 39/24/1 35/25/1
f 20/24/6 16/25/6 36/7/6 40/23/6
f 19/21/3 20/22/3 40/19/3 39/20/3
f 18/17/3 17/18/3 37/15/3 38/16/3
f 17/12/1 13/13/1 33/10/1 37/11/1
f 14/12/6 18/13/6 38/10/6 34/11/6
