# Blender 4.2.2 LTS
# www.blender.org
mtllib props_marketstall_A.mtl
o props_marketstall_A
v -0.973567 0.013252 0.968084
v -0.885306 0.013252 0.969887
v -0.883504 0.013252 0.881626
v -0.971764 0.013252 0.879823
v -0.891914 1.610340 0.882621
v -0.893567 1.596537 0.961281
v -0.972230 1.610340 0.959721
v -0.970576 1.624143 0.881061
v -0.887435 2.439188 0.872423
v -0.889260 2.452367 0.950904
v -0.967751 2.439188 0.949523
v -0.965925 2.426008 0.871042
v 1.004177 0.013252 0.962250
v 1.005775 0.013252 0.873985
v 0.917510 0.013252 0.872387
v 0.915912 0.013252 0.960652
v 0.918525 1.610340 0.880795
v 0.997189 1.596537 0.882266
v 0.995811 1.610340 0.960931
v 0.917147 1.624143 0.959460
v 0.908316 2.439188 0.876340
v 0.986802 2.452367 0.877983
v 0.985603 2.439188 0.956477
v 0.907117 2.426008 0.954833
v -0.973567 0.011126 -0.831916
v -0.885306 0.011126 -0.830114
v -0.883504 0.011126 -0.918374
v -0.971764 0.011126 -0.920177
v -0.891914 1.352019 -0.917379
v -0.893567 1.340431 -0.838719
v -0.972230 1.352019 -0.840279
v -0.970576 1.363608 -0.918940
v -0.887435 2.047908 -0.927577
v -0.889260 2.058973 -0.849096
v -0.967751 2.047908 -0.850477
v -0.965925 2.036843 -0.928958
v 1.004177 0.011126 -0.837751
v 1.005775 0.011126 -0.926015
v 0.917510 0.011126 -0.927613
v 0.915912 0.011126 -0.839349
v 0.918525 1.352019 -0.919206
v 0.997189 1.340431 -0.917735
v 0.995811 1.352019 -0.839069
v 0.917147 1.363608 -0.840540
v 0.908316 2.047908 -0.923661
v 0.986802 2.058973 -0.922017
v 0.985603 2.047908 -0.843524
v 0.907117 2.036843 -0.845167
v -1.031313 2.167201 1.051001
v -1.031313 2.078940 1.052804
v -1.031313 2.077137 0.964544
v -1.031313 2.165398 0.962740
v 0.362020 2.085547 0.965539
v 0.349977 2.087201 1.044199
v 0.362020 2.165863 1.042639
v 0.374062 2.164209 0.963978
v 1.085123 2.081068 0.955341
v 1.096621 2.082894 1.033822
v 1.085123 2.161385 1.032441
v 1.073625 2.159559 0.953960
v -1.036768 1.867201 -0.948999
v -1.036768 1.778940 -0.947196
v -1.036768 1.777137 -1.035456
v -1.036768 1.865398 -1.037260
v 0.363061 1.785547 -1.034461
v 0.350963 1.787201 -0.955801
v 0.363061 1.865863 -0.957361
v 0.375159 1.864209 -1.036022
v 1.089536 1.781068 -1.044659
v 1.101088 1.782894 -0.966178
v 1.089536 1.861385 -0.967559
v 1.077985 1.859559 -1.046040
v -0.884278 2.173896 0.954660
v 0.884278 2.173896 0.954660
v -0.870769 1.870025 -1.048129
v 0.904604 1.870025 -1.048129
v -0.884278 2.168706 1.052773
v 0.884278 2.168706 1.052773
v -0.884278 1.744963 1.095800
v 0.884278 1.744963 1.095800
v -0.870769 1.496486 -1.103427
v 0.904604 1.496486 -1.103427
v -0.294759 2.173896 0.954660
v 0.294759 2.173896 0.954660
v 0.312813 1.870025 -1.048129
v -0.278978 1.870025 -1.048129
v -0.294759 2.168706 1.052773
v 0.294759 2.168706 1.052773
v -0.294759 1.838419 1.095800
v 0.294759 1.838419 1.095800
v 0.312813 1.586650 -1.103427
v -0.278978 1.586650 -1.103427
v -0.879998 2.051412 0.305491
v -0.875049 1.929048 -0.445163
v 0.898164 1.929048 -0.445163
v 0.890718 2.051412 0.305491
v -0.283978 1.871326 -0.445163
v -0.289760 1.993690 0.305491
v 0.300479 1.993690 0.305491
v 0.307093 1.871326 -0.445163
v 0.884278 1.963161 1.103780
v -0.884278 1.963161 1.103780
v 0.294759 2.009890 1.103780
v -0.294759 2.009890 1.103780
v -0.884518 2.163937 0.955534
v 0.884520 2.163938 0.955545
v -0.871001 1.862545 -1.041496
v 0.904834 1.862578 -1.041459
v -0.884213 2.160902 1.046521
v 0.884213 2.160902 1.046521
v -0.884327 1.745372 1.085808
v 0.884327 1.745372 1.085808
v -0.870642 1.494826 -1.093566
v 0.904477 1.494826 -1.093566
v -0.294880 2.163944 0.955642
v 0.294879 2.163945 0.955645
v 0.312930 1.862436 -1.041618
v -0.279093 1.862433 -1.041621
v -0.294727 2.160842 1.046596
v 0.294727 2.160842 1.046596
v -0.294785 1.838855 1.085809
v 0.294785 1.838855 1.085809
v 0.312747 1.584868 -1.093587
v -0.278912 1.584868 -1.093587
v -0.880713 2.041627 0.307427
v -0.875777 1.919130 -0.444110
v 0.898889 1.919131 -0.444103
v 0.891435 2.041629 0.307435
v -0.284339 1.861377 -0.444231
v -0.290121 1.983907 0.307529
v 0.300839 1.983908 0.307533
v 0.307455 1.861377 -0.444227
v 0.884253 1.962082 1.093839
v -0.884253 1.962082 1.093839
v 0.294743 2.008614 1.093862
v -0.294743 2.008614 1.093862
vn -0.9998 0.0007 -0.0206
vn 0.9998 0.0053 0.0211
vn 0.0202 0.0007 -0.9998
vn -0.0197 0.0053 0.9998
vn -0.1604 0.9728 -0.1671
vn 0.0187 -0.0125 -0.9997
vn 0.9997 -0.0049 0.0221
vn -0.9997 0.0053 -0.0221
vn -0.0187 0.0123 0.9998
vn -0.0183 0.0007 0.9998
vn 0.0188 0.0053 -0.9998
vn -0.9998 0.0007 -0.0179
vn 0.9998 0.0053 0.0174
vn -0.1667 0.9728 0.1608
vn -0.9998 -0.0125 -0.0163
vn 0.0198 -0.0049 -0.9998
vn -0.0198 0.0053 0.9998
vn 0.9998 0.0123 0.0163
vn -0.9998 0.0009 -0.0206
vn 0.9998 0.0063 0.0211
vn 0.0202 0.0009 -0.9998
vn -0.0197 0.0063 0.9998
vn -0.1357 0.9806 -0.1414
vn 0.0187 -0.0149 -0.9997
vn 0.9997 -0.0059 0.0221
vn -0.9997 0.0063 -0.0221
vn -0.0187 0.0147 0.9997
vn -0.0183 0.0009 0.9998
vn 0.0188 0.0063 -0.9998
vn -0.9998 0.0009 -0.0179
vn 0.9998 0.0063 0.0174
vn -0.1411 0.9806 0.1361
vn -0.9998 -0.0149 -0.0163
vn 0.0198 -0.0059 -0.9998
vn -0.0198 0.0063 0.9998
vn 0.9998 0.0147 0.0163
vn 0.0008 0.9998 -0.0206
vn 0.0061 -0.9998 0.0211
vn 0.0008 -0.0202 -0.9998
vn 0.0061 0.0197 0.9998
vn 0.9791 0.1408 -0.1467
vn -0.0143 -0.0187 -0.9997
vn -0.0057 -0.9997 0.0221
vn 0.0061 0.9997 -0.0221
vn 0.0141 0.0187 0.9997
vn -1.0000 -0.0000 -0.0000
vn -0.0000 -1.0000 -0.0000
vn 0.0060 -0.9998 0.0211
vn 0.0060 0.0197 0.9998
vn 0.9789 0.1415 -0.1474
vn -0.0056 -0.9997 0.0221
vn 0.0140 0.0187 0.9997
vn -0.0476 0.9727 -0.2272
vn -0.0000 0.9986 0.0528
vn 0.0049 -0.0409 0.9992
vn 0.0126 0.1660 -0.9860
vn -0.0126 0.1660 -0.9860
vn -0.0000 0.1915 -0.9815
vn -0.0049 -0.0409 0.9992
vn -0.0000 -0.0465 0.9989
vn -0.0487 0.9975 -0.0504
vn -0.0000 0.9636 -0.2675
vn 0.0487 0.9976 -0.0495
vn -0.0000 1.0000 -0.0022
vn -0.0000 0.9870 -0.1609
vn 0.0960 0.9825 -0.1595
vn -0.0960 0.9823 -0.1610
vn 0.0476 0.9729 -0.2265
vn -0.0000 0.3058 0.9521
vn 0.0107 0.2696 0.9629
vn -0.0107 0.2696 0.9629
vn 0.0476 -0.9727 0.2273
vn -0.0000 -0.9994 -0.0337
vn -0.0049 0.0416 -0.9991
vn -0.0122 -0.1592 0.9872
vn 0.0122 -0.1591 0.9872
vn -0.0000 -0.1840 0.9829
vn 0.0049 0.0416 -0.9991
vn -0.0000 0.0474 -0.9989
vn -0.0000 -0.9994 -0.0341
vn 0.0488 -0.9977 0.0468
vn -0.0000 -0.9635 0.2677
vn -0.0488 -0.9978 0.0460
vn -0.0000 -1.0000 -0.0018
vn -0.0000 -0.9870 0.1609
vn -0.0960 -0.9825 0.1595
vn 0.0960 -0.9823 0.1610
vn -0.0476 -0.9728 0.2266
vn -0.0000 -0.2965 -0.9550
vn -0.0103 -0.2601 -0.9655
vn 0.0103 -0.2601 -0.9655
vn 1.0000 0.0093 0.0020
vn -1.0000 0.0092 0.0020
vn -0.1565 -0.9868 -0.0423
vn 1.0000 -0.0011 -0.0050
vn -1.0000 0.0001 0.0012
vn 0.1483 -0.9739 -0.1716
vn -1.0000 0.0004 -0.0062
vn 1.0000 0.0004 -0.0060
vn 0.1565 -0.9868 -0.0423
vn -0.0000 -0.9991 -0.0436
vn -0.1483 -0.9739 -0.1716
vn -0.0000 -0.9840 -0.1782
vn -0.9974 0.0703 -0.0180
vn 0.9974 0.0727 -0.0020
vn -0.9988 0.0462 -0.0149
vn -0.9987 0.0497 -0.0123
vn 0.9984 0.0570 0.0048
vn 0.9988 0.0487 0.0011
vn 1.0000 0.0001 0.0012
vn -1.0000 -0.0011 -0.0050
vt 0.878268 0.757269
vt 0.995970 0.757269
vt 0.995970 0.994347
vt 0.878268 0.994347
vt 0.831103 0.884067
vt 0.831103 0.930416
vt 0.784754 0.930476
vt 0.784754 0.884127
vt 0.766818 0.826639
vt 0.861728 0.826639
vt 0.861728 0.921549
vt 0.766818 0.921549
vt 0.774144 0.938829
vt 0.774144 0.846407
vt 0.866566 0.846407
vt 0.866566 0.938829
vt 0.774144 0.846407
vt 0.866566 0.846407
vt 0.866566 0.938829
vt 0.774144 0.938829
vt 0.866566 0.938829
vt 0.866566 0.846407
vt 0.866566 0.938829
vt 0.049684 0.878915
vt 0.052028 0.878915
vt 0.052028 0.881143
vt 0.049684 0.881143
vt 0.047340 0.878915
vt 0.044996 0.878915
vt 0.049684 0.885947
vt 0.052028 0.885947
vt 0.044996 0.885947
vt 0.047340 0.885947
vt 0.045790 0.917726
vt 0.048134 0.917726
vt 0.048134 0.910694
vt 0.045790 0.910694
vt 0.049684 0.883719
vt 0.052028 0.883719
vt 0.048134 0.912922
vt 0.045790 0.912922
vt 0.044996 0.883719
vt 0.047340 0.883719
vt 0.045790 0.915498
vt 0.048134 0.915498
vt 0.044996 0.881143
vt 0.047340 0.881143
s 0
usemtl Minipack_4
f 7/1/1 8/2/1 4/3/1 1/4/1
f 6/1/2 2/1/2 3/2/2 5/2/2
f 8/2/3 5/1/3 3/1/3 4/2/3
f 1/3/4 2/4/4 6/1/4 7/2/4
f 9/5/5 12/6/5 11/7/5 10/8/5
f 12/2/6 9/1/6 5/1/6 8/2/6
f 10/1/7 6/1/7 5/2/7 9/2/7
f 11/1/8 12/2/8 8/2/8 7/1/8
f 7/2/9 6/1/9 10/1/9 11/2/9
f 19/1/10 20/2/10 16/3/10 13/4/10
f 18/1/11 14/1/11 15/2/11 17/2/11
f 20/2/12 17/1/12 15/1/12 16/2/12
f 13/3/13 14/4/13 18/1/13 19/2/13
f 21/5/14 24/6/14 23/7/14 22/8/14
f 24/2/15 21/1/15 17/1/15 20/2/15
f 22/1/16 18/1/16 17/2/16 21/2/16
f 23/1/17 24/2/17 20/2/17 19/1/17
f 19/2/18 18/1/18 22/1/18 23/2/18
f 31/1/19 32/2/19 28/3/19 25/4/19
f 30/1/20 26/1/20 27/2/20 29/2/20
f 32/2/21 29/1/21 27/1/21 28/2/21
f 25/3/22 26/4/22 30/1/22 31/2/22
f 33/5/23 36/6/23 35/7/23 34/8/23
f 36/2/24 33/1/24 29/1/24 32/2/24
f 34/1/25 30/1/25 29/2/25 33/2/25
f 35/1/26 36/2/26 32/2/26 31/1/26
f 31/2/27 30/1/27 34/1/27 35/2/27
f 43/1/28 44/2/28 40/3/28 37/4/28
f 42/1/29 38/1/29 39/2/29 41/2/29
f 44/2/30 41/1/30 39/1/30 40/2/30
f 37/3/31 38/4/31 42/1/31 43/2/31
f 45/5/32 48/6/32 47/7/32 46/8/32
f 48/2/33 45/1/33 41/1/33 44/2/33
f 46/1/34 42/1/34 41/2/34 45/2/34
f 47/1/35 48/2/35 44/2/35 43/1/35
f 43/2/36 42/1/36 46/1/36 47/2/36
f 55/1/37 56/2/37 52/3/37 49/4/37
f 54/1/38 50/1/38 51/2/38 53/2/38
f 56/2/39 53/1/39 51/1/39 52/2/39
f 49/3/40 50/4/40 54/1/40 55/2/40
f 57/5/41 60/6/41 59/7/41 58/8/41
f 60/2/42 57/1/42 53/1/42 56/2/42
f 58/1/43 54/1/43 53/2/43 57/2/43
f 59/1/44 60/2/44 56/2/44 55/1/44
f 55/2/45 54/1/45 58/1/45 59/2/45
f 49/9/46 52/10/46 51/11/46 50/12/46
f 1/13/47 4/14/47 3/15/47 2/16/47
f 13/13/47 16/17/47 15/18/47 14/19/47
f 25/20/47 28/14/47 27/15/47 26/21/47
f 37/13/47 40/17/47 39/22/47 38/23/47
f 67/1/37 68/2/37 64/3/37 61/4/37
f 66/1/48 62/1/48 63/2/48 65/2/48
f 68/2/39 65/1/39 63/1/39 64/2/39
f 61/3/49 62/4/49 66/1/49 67/2/49
f 69/5/50 72/6/50 71/7/50 70/8/50
f 72/2/42 69/1/42 65/1/42 68/2/42
f 70/1/51 66/1/51 65/2/51 69/2/51
f 71/1/44 72/2/44 68/2/44 67/1/44
f 67/2/52 66/1/52 70/1/52 71/2/52
f 61/9/46 64/10/46 63/11/46 62/12/46
f 84/24/53 74/25/53 96/26/53 99/27/53
f 83/28/54 73/29/54 77/29/54 87/28/54
f 104/28/55 102/29/55 79/29/55 89/28/55
f 85/30/56 76/31/56 82/31/56 91/30/56
f 75/32/57 86/33/57 92/33/57 81/32/57
f 86/34/58 85/35/58 91/35/58 92/34/58
f 101/25/59 103/24/59 90/24/59 80/25/59
f 103/36/60 104/37/60 89/37/60 90/36/60
f 74/25/54 84/24/54 88/24/54 78/25/54
f 84/36/54 83/37/54 87/37/54 88/36/54
f 100/38/61 95/39/61 76/31/61 85/30/61
f 83/37/62 84/36/62 99/40/62 98/41/62
f 94/42/63 97/43/63 86/33/63 75/32/63
f 97/44/64 100/45/64 85/35/64 86/34/64
f 100/45/65 97/44/65 98/41/65 99/40/65
f 97/43/66 94/42/66 93/46/66 98/47/66
f 95/39/67 100/38/67 99/27/67 96/26/67
f 73/29/68 83/28/68 98/47/68 93/46/68
f 88/36/69 87/37/69 104/37/69 103/36/69
f 78/25/70 88/24/70 103/24/70 101/25/70
f 87/28/71 77/29/71 102/29/71 104/28/71
f 116/24/72 131/27/72 128/26/72 106/25/72
f 115/28/73 119/28/73 109/29/73 105/29/73
f 136/28/74 121/28/74 111/29/74 134/29/74
f 117/30/75 123/30/75 114/31/75 108/31/75
f 107/32/76 113/32/76 124/33/76 118/33/76
f 118/34/77 124/34/77 123/35/77 117/35/77
f 133/25/78 112/25/78 122/24/78 135/24/78
f 135/36/79 122/36/79 121/37/79 136/37/79
f 106/25/73 110/25/73 120/24/73 116/24/73
f 116/36/80 120/36/80 119/37/80 115/37/80
f 132/38/81 117/30/81 108/31/81 127/39/81
f 115/37/82 130/41/82 131/40/82 116/36/82
f 126/42/83 107/32/83 118/33/83 129/43/83
f 129/44/84 118/34/84 117/35/84 132/45/84
f 132/45/85 131/40/85 130/41/85 129/44/85
f 129/43/86 130/47/86 125/46/86 126/42/86
f 127/39/87 128/26/87 131/27/87 132/38/87
f 105/29/88 125/46/88 130/47/88 115/28/88
f 120/36/89 135/36/89 136/37/89 119/37/89
f 110/25/90 133/25/90 135/24/90 120/24/90
f 119/28/91 136/28/91 134/29/91 109/29/91
f 74/25/92 78/25/92 110/25/92 106/25/92
f 77/29/93 73/29/93 105/29/93 109/29/93
f 80/25/94 90/24/94 122/24/94 112/25/94
f 78/25/95 101/25/95 133/25/95 110/25/95
f 79/29/96 102/29/96 134/29/96 111/29/96
f 81/32/97 92/33/97 124/33/97 113/32/97
f 75/32/98 81/32/98 113/32/98 107/32/98
f 82/31/99 76/31/99 108/31/99 114/31/99
f 89/28/100 79/29/100 111/29/100 121/28/100
f 90/36/101 89/37/101 121/37/101 122/36/101
f 91/30/102 82/31/102 114/31/102 123/30/102
f 92/34/103 91/35/103 123/35/103 124/34/103
f 93/46/104 94/42/104 126/42/104 125/46/104
f 95/39/105 96/26/105 128/26/105 127/39/105
f 73/29/106 93/46/106 125/46/106 105/29/106
f 94/42/107 75/32/107 107/32/107 126/42/107
f 76/31/108 95/39/108 127/39/108 108/31/108
f 96/26/109 74/25/109 106/25/109 128/26/109
f 101/25/110 80/25/110 112/25/110 133/25/110
f 102/29/111 77/29/111 109/29/111 134/29/111
